<svg preserveAspectRatio="none" overflow="visible" style="display: block;" width="25" height="14" viewBox="0 0 25 14" fill="none" xmlns="http://www.w3.org/2000/svg">
<g id="team " clip-path="url(#clip0_0_4)">
<path id="Vector" d="M5.62429 7.12571C7.09522 7.12571 8.28764 5.84362 8.28764 4.26207C8.28764 2.68053 7.09522 1.39844 5.62429 1.39844C4.15336 1.39844 2.96094 2.68053 2.96094 4.26207C2.96094 5.84362 4.15336 7.12571 5.62429 7.12571Z" fill="#EFF0F1"/>
<path id="Vector_2" d="M8.65779 8.71733C7.61612 8.14858 6.46644 7.92188 5.62453 7.92188C3.97547 7.92188 0.59375 9.00926 0.59375 11.1832V12.8537H6.1424V12.2145C6.1424 11.4589 6.43833 10.7012 6.9562 10.0696C7.36939 9.56528 7.94793 9.09716 8.65779 8.71733Z" fill="#EFF0F1"/>
<path id="Vector_3" d="M19.6999 7.28196C18.229 7.28196 17.0366 5.99987 17.0366 4.41832C17.0366 2.83678 18.229 1.55469 19.6999 1.55469C21.1709 1.55469 22.3633 2.83678 22.3633 4.41832C22.3633 5.99987 21.1709 7.28196 19.6999 7.28196Z" fill="#EFF0F1"/>
<path id="Vector_4" d="M16.6664 8.87358C17.7081 8.30483 18.8578 8.07812 19.6997 8.07812C21.3488 8.07812 24.7305 9.16551 24.7305 11.3395V13.0099H19.1818V12.3708C19.1818 11.6151 18.8859 10.8574 18.368 10.2259C17.9548 9.72153 17.3763 9.25341 16.6664 8.87358Z" fill="#EFF0F1"/>
<path id="Vector_5" d="M12.5753 8.39844C10.6492 8.39844 6.80469 9.67753 6.80469 12.2166V14.1257H18.3459V12.2166C18.3459 9.67753 14.5014 8.39844 12.5753 8.39844Z" fill="#EFF0F1"/>
<path id="Vector_6" d="M12.5755 7.12695C14.3733 7.12695 15.8307 5.55995 15.8307 3.62695C15.8307 1.69396 14.3733 0.126953 12.5755 0.126953C10.7777 0.126953 9.32031 1.69396 9.32031 3.62695C9.32031 5.55995 10.7777 7.12695 12.5755 7.12695Z" fill="#EFF0F1"/>
</g>
<defs>
<clipPath id="clip0_0_4">
<rect width="25" height="14" fill="white"/>
</clipPath>
</defs>
</svg>
