<svg preserveAspectRatio="none" overflow="visible" style="display: block;" width="76.7004" height="51.986" viewBox="0 0 76.7004 51.986" fill="none" xmlns="http://www.w3.org/2000/svg">
<g id="Group">
<path id="Vector" d="M3.99949 38.9698L0.0517344 51.7735H3.1582L3.87075 49.3878H7.72166L8.41496 51.7735H11.793L7.84558 38.9698H3.99949ZM4.65098 46.8123L5.82373 42.8301L6.98324 46.8123H4.65098ZM19.2154 45.9321C19.1699 45.8834 19.1223 45.8365 19.0728 45.7917C19.1699 45.7554 19.2647 45.7162 19.3574 45.6739C19.7233 45.5089 20.0553 45.2779 20.3364 44.9926C20.6184 44.7018 20.8382 44.3573 20.9825 43.9797C21.1329 43.5951 21.2093 43.1531 21.2093 42.6669C21.2093 41.9966 21.0875 41.4168 20.848 40.9431C20.6099 40.4687 20.251 40.0644 19.807 39.7704C19.3718 39.4806 18.8424 39.2711 18.2334 39.1482C17.648 39.0302 16.9887 38.9698 16.2744 38.9698H12.2445V51.7735H15.335V46.7707H15.4268C15.7648 46.7707 16.0467 46.8445 16.2882 46.9969C16.5279 47.1479 16.7117 47.3705 16.851 47.6789L18.7188 51.7735H22.3147L20.0453 47.2061C19.7704 46.6515 19.4987 46.2352 19.2154 45.9321ZM17.8712 43.4759C17.7814 43.6456 17.6513 43.7911 17.4922 43.8997C17.3175 44.0216 17.1006 44.1151 16.8468 44.1779C16.5788 44.2445 16.2729 44.278 15.9372 44.278H15.335V41.5827H16.0142C16.7216 41.5827 17.2474 41.6929 17.5768 41.9108C17.8637 42.1006 18.0033 42.4203 18.0033 42.8889C18.0033 43.1155 17.9599 43.3076 17.8712 43.4759ZM31.3694 40.4904C30.849 39.9707 30.1927 39.5816 29.4188 39.3344C28.6645 39.0926 27.7765 38.9698 26.7801 38.9698H22.6927V51.7735H26.2507C27.3988 51.7735 28.4031 51.6181 29.2353 51.3118C30.0805 51.0012 30.7865 50.5506 31.333 49.9726C31.8786 49.3958 32.2853 48.6911 32.5409 47.8786C32.7918 47.083 32.9187 46.1883 32.9187 45.2191C32.9187 44.1626 32.7915 43.2359 32.54 42.4646C32.2832 41.6744 31.8894 41.0104 31.3694 40.4904ZM28.8425 48.2715C28.3059 48.8639 27.5275 49.1517 26.4627 49.1517H25.783V41.5916H26.6261C27.2219 41.5916 27.7221 41.6753 28.1122 41.8406C28.4906 42.0005 28.7833 42.2264 29.007 42.5306C29.2356 42.8426 29.4014 43.2341 29.4994 43.6935C29.6026 44.1794 29.6552 44.7424 29.6552 45.367C29.6552 46.6993 29.3818 47.6765 28.8425 48.2715ZM40.3633 47.115C40.3633 47.5564 40.3224 47.9326 40.2409 48.2333C40.1651 48.5139 40.0535 48.7431 39.9086 48.9144C39.7714 49.0777 39.5919 49.2005 39.3894 49.2697C39.1605 49.351 38.8679 49.3919 38.519 49.3919C38.1499 49.3919 37.8455 49.345 37.6142 49.2521C37.4017 49.1694 37.2137 49.0348 37.0677 48.8606C36.9215 48.6857 36.8168 48.4664 36.7564 48.2076C36.689 47.9219 36.655 47.5857 36.655 47.2073V38.9698H33.5648V47.346C33.5648 48.0381 33.6511 48.6735 33.8207 49.2341C33.9973 49.8166 34.2885 50.3202 34.6864 50.7299C35.0843 51.1396 35.6053 51.4561 36.2348 51.6704C36.8466 51.8799 37.5859 51.986 38.432 51.986C39.1885 51.986 39.8827 51.8799 40.4945 51.6704C41.1201 51.4573 41.6594 51.1342 42.0976 50.7099C42.5362 50.2849 42.8764 49.75 43.1089 49.12C43.3375 48.5014 43.4536 47.7769 43.4536 46.9668V38.9698H40.3633V47.115ZM45.0339 41.5456H47.8071V49.1795H45.0339V51.7735H53.7093V49.1795H50.9361V41.5456H53.7093V38.9698H45.0339V41.5456ZM62.3092 46.2654L58.8545 38.9698H55.3567V51.7735H58.2349V44.3393L61.708 51.7735H65.188V38.9698H62.3092V46.2654ZM75.1926 40.4847C74.2903 39.3446 72.9376 38.7666 71.173 38.7666C70.418 38.7666 69.6979 38.8996 69.0326 39.1617C68.358 39.4274 67.7618 39.841 67.2604 40.3921C66.7635 40.9383 66.3689 41.6409 66.0883 42.4798C65.8106 43.3079 65.6699 44.301 65.6699 45.4319C65.6699 47.5208 66.1171 49.146 66.999 50.2631C67.9014 51.4065 69.254 51.986 71.0187 51.986C71.7739 51.986 72.4946 51.853 73.1599 51.5909C73.8349 51.3249 74.4307 50.911 74.9315 50.3608C75.4278 49.8148 75.8224 49.1125 76.104 48.273C76.381 47.4452 76.5218 46.4521 76.5218 45.3207C76.5218 43.2257 76.0745 41.5985 75.1926 40.4847ZM73.1587 47.1374C73.0703 47.6099 72.9322 48.0083 72.7485 48.3218C72.574 48.6203 72.358 48.8391 72.0888 48.99C71.8206 49.1403 71.4864 49.2165 71.096 49.2165C70.3236 49.2165 69.7852 48.9308 69.4501 48.3436C69.0819 47.6983 68.8951 46.6817 68.8951 45.3207C68.8951 44.6817 68.9415 44.1077 69.0335 43.6155C69.1219 43.1439 69.2609 42.7461 69.4474 42.4326C69.6248 42.1329 69.8414 41.9135 70.1094 41.762C70.3738 41.6123 70.7056 41.5363 71.096 41.5363C71.8744 41.5363 72.4143 41.8215 72.7461 42.4078C73.1115 43.0533 73.2968 44.0709 73.2968 45.4319C73.2968 46.0726 73.2505 46.6464 73.1587 47.1374ZM72.0576 1.7154H72.6059V3.14779H72.9948V1.7154H73.5476V1.35977H72.0576V1.7154ZM74.9009 1.35977L74.5258 2.57848L74.1378 1.35977H73.6304V3.14779H73.9961V2.00559L74.3588 3.14779H74.6927L75.0368 2.03517V3.14779H75.4007V1.35977H74.9009ZM57.0065 35.9598C52.1073 35.9598 47.9187 34.3185 44.2323 30.9615C41.9551 28.8884 40.0776 26.3485 38.3502 23.7075C36.6231 26.3485 34.7453 28.8884 32.4684 30.9615C28.5074 34.5683 23.9662 36.1947 18.5877 35.9326C8.33074 35.8884 0 27.8457 0 17.9663C0 8.0597 8.37646 0 18.6725 0C24.3067 0 29.0504 1.85257 33.1732 5.66322C35.1535 7.49368 36.8252 9.61701 38.3502 11.8387C39.8752 9.61701 41.5472 7.49368 43.5273 5.66322C47.6501 1.85257 52.3937 0 58.0279 0C68.3243 0 76.7004 8.0597 76.7004 17.9663C76.7004 27.8457 68.37 35.8884 58.1127 35.9326C57.7443 35.9507 57.3754 35.9597 57.0065 35.9598ZM42.1013 17.7266C44.1448 21.0209 46.1281 24.0871 48.544 26.2866C51.2709 28.7697 54.1451 29.7912 57.8607 29.5961L58.0279 29.5916C64.8048 29.5916 70.3184 24.3766 70.3184 17.9663C70.3184 11.556 64.8048 6.34101 58.0279 6.34101C54.0272 6.34101 50.8007 7.60097 47.8741 10.3059C45.6884 12.3264 43.8837 14.915 42.1013 17.7266ZM18.6725 6.34101C11.8956 6.34101 6.38198 11.5563 6.38198 17.9663C6.38198 24.3766 11.8956 29.5916 18.6725 29.5916L18.84 29.5961C22.5559 29.7912 25.4296 28.7697 28.1564 26.2866C30.5723 24.0871 32.556 21.0209 34.5992 17.7266C32.8167 14.915 31.012 12.3264 28.8266 10.3059C25.8997 7.60097 22.6732 6.34101 18.6725 6.34101Z" fill="#00979C"/>
<path id="Vector_2" d="M58.8735 15.6612V12.2227H55.2713V15.6612H51.8108V19.2229H55.2713V22.6869H58.8735V19.2229H62.3343V15.6612H58.8735ZM13.4922 15.6182H24.8668V19.2917H13.4922V15.6182Z" fill="#00979C"/>
</g>
</svg>
